<svg viewBox="0 0 991 269" xmlns="http://www.w3.org/2000/svg">
<rect width="991" height="269" rx="14" fill="#0d1117" stroke="#30363d" stroke-width="1.5"/>
<circle cx="26" cy="26" r="6" fill="#ff5f56"/>
<circle cx="46" cy="26" r="6" fill="#ffbd2e"/>
<circle cx="66" cy="26" r="6" fill="#27c93f"/>
<text x="495.5" y="31" text-anchor="middle" font-family="SF Mono, Consolas, monospace" font-size="13" fill="#8b949e">aditya@github: ~/contributions --graph</text>
<line x1="0" y1="46" x2="991" y2="46" stroke="#21262d" stroke-width="1"/>
<text x="50" y="50" font-family="SF Mono, Consolas, monospace" font-size="12" fill="#8b949e">Jul</text>
<text x="67" y="50" font-family="SF Mono, Consolas, monospace" font-size="12" fill="#8b949e">Aug</text>
<text x="152" y="50" font-family="SF Mono, Consolas, monospace" font-size="12" fill="#8b949e">Sep</text>
<text x="220" y="50" font-family="SF Mono, Consolas, monospace" font-size="12" fill="#8b949e">Oct</text>
<text x="288" y="50" font-family="SF Mono, Consolas, monospace" font-size="12" fill="#8b949e">Nov</text>
<text x="373" y="50" font-family="SF Mono, Consolas, monospace" font-size="12" fill="#8b949e">Dec</text>
<text x="441" y="50" font-family="SF Mono, Consolas, monospace" font-size="12" fill="#8b949e">Jan</text>
<text x="526" y="50" font-family="SF Mono, Consolas, monospace" font-size="12" fill="#8b949e">Feb</text>
<text x="594" y="50" font-family="SF Mono, Consolas, monospace" font-size="12" fill="#8b949e">Mar</text>
<text x="662" y="50" font-family="SF Mono, Consolas, monospace" font-size="12" fill="#8b949e">Apr</text>
<text x="730" y="50" font-family="SF Mono, Consolas, monospace" font-size="12" fill="#8b949e">May</text>
<text x="815" y="50" font-family="SF Mono, Consolas, monospace" font-size="12" fill="#8b949e">Jun</text>
<text x="10" y="88" font-family="SF Mono, Consolas, monospace" font-size="11" fill="#8b949e">Mon</text>
<text x="10" y="122" font-family="SF Mono, Consolas, monospace" font-size="11" fill="#8b949e">Wed</text>
<text x="10" y="156" font-family="SF Mono, Consolas, monospace" font-size="11" fill="#8b949e">Fri</text>
<rect x="50" y="60" width="13" height="13" rx="2" fill="#161b22"/>
<rect x="50" y="77" width="13" height="13" rx="2" fill="#161b22"/>
<rect x="50" y="94" width="13" height="13" rx="2" fill="#161b22"/>
<rect x="50" y="111" width="13" height="13" rx="2" fill="#161b22"/>
<rect x="50" y="128" width="13" height="13" rx="2" fill="#161b22"/>
<rect x="50" y="145" width="13" height="13" rx="2" fill="#161b22"/>
<rect x="50" y="162" width="13" height="13" rx="2" fill="#161b22"/>
<rect x="67" y="60" width="13" height="13" rx="2" fill="#161b22"/>
<rect x="67" y="77" width="13" height="13" rx="2" fill="#161b22"/>
<rect x="67" y="94" width="13" height="13" rx="2" fill="#161b22"/>
<rect x="67" y="111" width="13" height="13" rx="2" fill="#161b22"/>
<rect x="67" y="128" width="13" height="13" rx="2" fill="#161b22"/>
<rect x="67" y="145" width="13" height="13" rx="2" fill="#161b22"/>
<rect x="67" y="162" width="13" height="13" rx="2" fill="#161b22"/>
<rect x="84" y="60" width="13" height="13" rx="2" fill="#161b22"/>
<rect x="84" y="77" width="13" height="13" rx="2" fill="#161b22"/>
<rect x="84" y="94" width="13" height="13" rx="2" fill="#161b22"/>
<rect x="84" y="111" width="13" height="13" rx="2" fill="#161b22"/>
<rect x="84" y="128" width="13" height="13" rx="2" fill="#161b22"/>
<rect x="84" y="145" width="13" height="13" rx="2" fill="#161b22"/>
<rect x="84" y="162" width="13" height="13" rx="2" fill="#161b22"/>
<rect x="101" y="60" width="13" height="13" rx="2" fill="#161b22"/>
<rect x="101" y="77" width="13" height="13" rx="2" fill="#161b22"/>
<rect x="101" y="94" width="13" height="13" rx="2" fill="#161b22"/>
<rect x="101" y="111" width="13" height="13" rx="2" fill="#39d353"/>
<rect x="101" y="128" width="13" height="13" rx="2" fill="#161b22"/>
<rect x="101" y="145" width="13" height="13" rx="2" fill="#161b22"/>
<rect x="101" y="162" width="13" height="13" rx="2" fill="#161b22"/>
<rect x="118" y="60" width="13" height="13" rx="2" fill="#161b22"/>
<rect x="118" y="77" width="13" height="13" rx="2" fill="#161b22"/>
<rect x="118" y="94" width="13" height="13" rx="2" fill="#161b22"/>
<rect x="118" y="111" width="13" height="13" rx="2" fill="#0e4429"/>
<rect x="118" y="128" width="13" height="13" rx="2" fill="#161b22"/>
<rect x="118" y="145" width="13" height="13" rx="2" fill="#161b22"/>
<rect x="118" y="162" width="13" height="13" rx="2" fill="#161b22"/>
<rect x="135" y="60" width="13" height="13" rx="2" fill="#161b22"/>
<rect x="135" y="77" width="13" height="13" rx="2" fill="#006d32"/>
<rect x="135" y="94" width="13" height="13" rx="2" fill="#161b22"/>
<rect x="135" y="111" width="13" height="13" rx="2" fill="#161b22"/>
<rect x="135" y="128" width="13" height="13" rx="2" fill="#0e4429"/>
<rect x="135" y="145" width="13" height="13" rx="2" fill="#161b22"/>
<rect x="135" y="162" width="13" height="13" rx="2" fill="#161b22"/>
<rect x="152" y="60" width="13" height="13" rx="2" fill="#161b22"/>
<rect x="152" y="77" width="13" height="13" rx="2" fill="#161b22"/>
<rect x="152" y="94" width="13" height="13" rx="2" fill="#161b22"/>
<rect x="152" y="111" width="13" height="13" rx="2" fill="#161b22"/>
<rect x="152" y="128" width="13" height="13" rx="2" fill="#161b22"/>
<rect x="152" y="145" width="13" height="13" rx="2" fill="#161b22"/>
<rect x="152" y="162" width="13" height="13" rx="2" fill="#26a641"/>
<rect x="169" y="60" width="13" height="13" rx="2" fill="#161b22"/>
<rect x="169" y="77" width="13" height="13" rx="2" fill="#161b22"/>
<rect x="169" y="94" width="13" height="13" rx="2" fill="#161b22"/>
<rect x="169" y="111" width="13" height="13" rx="2" fill="#161b22"/>
<rect x="169" y="128" width="13" height="13" rx="2" fill="#161b22"/>
<rect x="169" y="145" width="13" height="13" rx="2" fill="#161b22"/>
<rect x="169" y="162" width="13" height="13" rx="2" fill="#161b22"/>
<rect x="186" y="60" width="13" height="13" rx="2" fill="#006d32"/>
<rect x="186" y="77" width="13" height="13" rx="2" fill="#161b22"/>
<rect x="186" y="94" width="13" height="13" rx="2" fill="#006d32"/>
<rect x="186" y="111" width="13" height="13" rx="2" fill="#0e4429"/>
<rect x="186" y="128" width="13" height="13" rx="2" fill="#161b22"/>
<rect x="186" y="145" width="13" height="13" rx="2" fill="#161b22"/>
<rect x="186" y="162" width="13" height="13" rx="2" fill="#161b22"/>
<rect x="203" y="60" width="13" height="13" rx="2" fill="#161b22"/>
<rect x="203" y="77" width="13" height="13" rx="2" fill="#161b22"/>
<rect x="203" y="94" width="13" height="13" rx="2" fill="#161b22"/>
<rect x="203" y="111" width="13" height="13" rx="2" fill="#161b22"/>
<rect x="203" y="128" width="13" height="13" rx="2" fill="#39d353"/>
<rect x="203" y="145" width="13" height="13" rx="2" fill="#0e4429"/>
<rect x="203" y="162" width="13" height="13" rx="2" fill="#161b22"/>
<rect x="220" y="60" width="13" height="13" rx="2" fill="#161b22"/>
<rect x="220" y="77" width="13" height="13" rx="2" fill="#161b22"/>
<rect x="220" y="94" width="13" height="13" rx="2" fill="#161b22"/>
<rect x="220" y="111" width="13" height="13" rx="2" fill="#161b22"/>
<rect x="220" y="128" width="13" height="13" rx="2" fill="#161b22"/>
<rect x="220" y="145" width="13" height="13" rx="2" fill="#39d353"/>
<rect x="220" y="162" width="13" height="13" rx="2" fill="#39d353"/>
<rect x="237" y="60" width="13" height="13" rx="2" fill="#161b22"/>
<rect x="237" y="77" width="13" height="13" rx="2" fill="#161b22"/>
<rect x="237" y="94" width="13" height="13" rx="2" fill="#161b22"/>
<rect x="237" y="111" width="13" height="13" rx="2" fill="#161b22"/>
<rect x="237" y="128" width="13" height="13" rx="2" fill="#161b22"/>
<rect x="237" y="145" width="13" height="13" rx="2" fill="#161b22"/>
<rect x="237" y="162" width="13" height="13" rx="2" fill="#161b22"/>
<rect x="254" y="60" width="13" height="13" rx="2" fill="#161b22"/>
<rect x="254" y="77" width="13" height="13" rx="2" fill="#161b22"/>
<rect x="254" y="94" width="13" height="13" rx="2" fill="#161b22"/>
<rect x="254" y="111" width="13" height="13" rx="2" fill="#161b22"/>
<rect x="254" y="128" width="13" height="13" rx="2" fill="#161b22"/>
<rect x="254" y="145" width="13" height="13" rx="2" fill="#161b22"/>
<rect x="254" y="162" width="13" height="13" rx="2" fill="#161b22"/>
<rect x="271" y="60" width="13" height="13" rx="2" fill="#161b22"/>
<rect x="271" y="77" width="13" height="13" rx="2" fill="#161b22"/>
<rect x="271" y="94" width="13" height="13" rx="2" fill="#161b22"/>
<rect x="271" y="111" width="13" height="13" rx="2" fill="#161b22"/>
<rect x="271" y="128" width="13" height="13" rx="2" fill="#161b22"/>
<rect x="271" y="145" width="13" height="13" rx="2" fill="#161b22"/>
<rect x="271" y="162" width="13" height="13" rx="2" fill="#161b22"/>
<rect x="288" y="60" width="13" height="13" rx="2" fill="#161b22"/>
<rect x="288" y="77" width="13" height="13" rx="2" fill="#161b22"/>
<rect x="288" y="94" width="13" height="13" rx="2" fill="#161b22"/>
<rect x="288" y="111" width="13" height="13" rx="2" fill="#161b22"/>
<rect x="288" y="128" width="13" height="13" rx="2" fill="#161b22"/>
<rect x="288" y="145" width="13" height="13" rx="2" fill="#161b22"/>
<rect x="288" y="162" width="13" height="13" rx="2" fill="#161b22"/>
<rect x="305" y="60" width="13" height="13" rx="2" fill="#161b22"/>
<rect x="305" y="77" width="13" height="13" rx="2" fill="#161b22"/>
<rect x="305" y="94" width="13" height="13" rx="2" fill="#161b22"/>
<rect x="305" y="111" width="13" height="13" rx="2" fill="#161b22"/>
<rect x="305" y="128" width="13" height="13" rx="2" fill="#161b22"/>
<rect x="305" y="145" width="13" height="13" rx="2" fill="#161b22"/>
<rect x="305" y="162" width="13" height="13" rx="2" fill="#161b22"/>
<rect x="322" y="60" width="13" height="13" rx="2" fill="#161b22"/>
<rect x="322" y="77" width="13" height="13" rx="2" fill="#161b22"/>
<rect x="322" y="94" width="13" height="13" rx="2" fill="#161b22"/>
<rect x="322" y="111" width="13" height="13" rx="2" fill="#161b22"/>
<rect x="322" y="128" width="13" height="13" rx="2" fill="#161b22"/>
<rect x="322" y="145" width="13" height="13" rx="2" fill="#161b22"/>
<rect x="322" y="162" width="13" height="13" rx="2" fill="#161b22"/>
<rect x="339" y="60" width="13" height="13" rx="2" fill="#161b22"/>
<rect x="339" y="77" width="13" height="13" rx="2" fill="#161b22"/>
<rect x="339" y="94" width="13" height="13" rx="2" fill="#161b22"/>
<rect x="339" y="111" width="13" height="13" rx="2" fill="#161b22"/>
<rect x="339" y="128" width="13" height="13" rx="2" fill="#161b22"/>
<rect x="339" y="145" width="13" height="13" rx="2" fill="#161b22"/>
<rect x="339" y="162" width="13" height="13" rx="2" fill="#161b22"/>
<rect x="356" y="60" width="13" height="13" rx="2" fill="#161b22"/>
<rect x="356" y="77" width="13" height="13" rx="2" fill="#161b22"/>
<rect x="356" y="94" width="13" height="13" rx="2" fill="#161b22"/>
<rect x="356" y="111" width="13" height="13" rx="2" fill="#161b22"/>
<rect x="356" y="128" width="13" height="13" rx="2" fill="#161b22"/>
<rect x="356" y="145" width="13" height="13" rx="2" fill="#161b22"/>
<rect x="356" y="162" width="13" height="13" rx="2" fill="#161b22"/>
<rect x="373" y="60" width="13" height="13" rx="2" fill="#161b22"/>
<rect x="373" y="77" width="13" height="13" rx="2" fill="#161b22"/>
<rect x="373" y="94" width="13" height="13" rx="2" fill="#161b22"/>
<rect x="373" y="111" width="13" height="13" rx="2" fill="#161b22"/>
<rect x="373" y="128" width="13" height="13" rx="2" fill="#161b22"/>
<rect x="373" y="145" width="13" height="13" rx="2" fill="#161b22"/>
<rect x="373" y="162" width="13" height="13" rx="2" fill="#161b22"/>
<rect x="390" y="60" width="13" height="13" rx="2" fill="#161b22"/>
<rect x="390" y="77" width="13" height="13" rx="2" fill="#161b22"/>
<rect x="390" y="94" width="13" height="13" rx="2" fill="#161b22"/>
<rect x="390" y="111" width="13" height="13" rx="2" fill="#161b22"/>
<rect x="390" y="128" width="13" height="13" rx="2" fill="#161b22"/>
<rect x="390" y="145" width="13" height="13" rx="2" fill="#0e4429"/>
<rect x="390" y="162" width="13" height="13" rx="2" fill="#161b22"/>
<rect x="407" y="60" width="13" height="13" rx="2" fill="#161b22"/>
<rect x="407" y="77" width="13" height="13" rx="2" fill="#161b22"/>
<rect x="407" y="94" width="13" height="13" rx="2" fill="#161b22"/>
<rect x="407" y="111" width="13" height="13" rx="2" fill="#26a641"/>
<rect x="407" y="128" width="13" height="13" rx="2" fill="#161b22"/>
<rect x="407" y="145" width="13" height="13" rx="2" fill="#161b22"/>
<rect x="407" y="162" width="13" height="13" rx="2" fill="#161b22"/>
<rect x="424" y="60" width="13" height="13" rx="2" fill="#161b22"/>
<rect x="424" y="77" width="13" height="13" rx="2" fill="#161b22"/>
<rect x="424" y="94" width="13" height="13" rx="2" fill="#161b22"/>
<rect x="424" y="111" width="13" height="13" rx="2" fill="#161b22"/>
<rect x="424" y="128" width="13" height="13" rx="2" fill="#161b22"/>
<rect x="424" y="145" width="13" height="13" rx="2" fill="#161b22"/>
<rect x="424" y="162" width="13" height="13" rx="2" fill="#161b22"/>
<rect x="441" y="60" width="13" height="13" rx="2" fill="#006d32"/>
<rect x="441" y="77" width="13" height="13" rx="2" fill="#161b22"/>
<rect x="441" y="94" width="13" height="13" rx="2" fill="#161b22"/>
<rect x="441" y="111" width="13" height="13" rx="2" fill="#161b22"/>
<rect x="441" y="128" width="13" height="13" rx="2" fill="#161b22"/>
<rect x="441" y="145" width="13" height="13" rx="2" fill="#161b22"/>
<rect x="441" y="162" width="13" height="13" rx="2" fill="#161b22"/>
<rect x="458" y="60" width="13" height="13" rx="2" fill="#161b22"/>
<rect x="458" y="77" width="13" height="13" rx="2" fill="#161b22"/>
<rect x="458" y="94" width="13" height="13" rx="2" fill="#161b22"/>
<rect x="458" y="111" width="13" height="13" rx="2" fill="#161b22"/>
<rect x="458" y="128" width="13" height="13" rx="2" fill="#161b22"/>
<rect x="458" y="145" width="13" height="13" rx="2" fill="#161b22"/>
<rect x="458" y="162" width="13" height="13" rx="2" fill="#161b22"/>
<rect x="475" y="60" width="13" height="13" rx="2" fill="#161b22"/>
<rect x="475" y="77" width="13" height="13" rx="2" fill="#161b22"/>
<rect x="475" y="94" width="13" height="13" rx="2" fill="#161b22"/>
<rect x="475" y="111" width="13" height="13" rx="2" fill="#161b22"/>
<rect x="475" y="128" width="13" height="13" rx="2" fill="#161b22"/>
<rect x="475" y="145" width="13" height="13" rx="2" fill="#161b22"/>
<rect x="475" y="162" width="13" height="13" rx="2" fill="#161b22"/>
<rect x="492" y="60" width="13" height="13" rx="2" fill="#161b22"/>
<rect x="492" y="77" width="13" height="13" rx="2" fill="#161b22"/>
<rect x="492" y="94" width="13" height="13" rx="2" fill="#161b22"/>
<rect x="492" y="111" width="13" height="13" rx="2" fill="#161b22"/>
<rect x="492" y="128" width="13" height="13" rx="2" fill="#161b22"/>
<rect x="492" y="145" width="13" height="13" rx="2" fill="#161b22"/>
<rect x="492" y="162" width="13" height="13" rx="2" fill="#161b22"/>
<rect x="509" y="60" width="13" height="13" rx="2" fill="#161b22"/>
<rect x="509" y="77" width="13" height="13" rx="2" fill="#161b22"/>
<rect x="509" y="94" width="13" height="13" rx="2" fill="#161b22"/>
<rect x="509" y="111" width="13" height="13" rx="2" fill="#161b22"/>
<rect x="509" y="128" width="13" height="13" rx="2" fill="#161b22"/>
<rect x="509" y="145" width="13" height="13" rx="2" fill="#161b22"/>
<rect x="509" y="162" width="13" height="13" rx="2" fill="#161b22"/>
<rect x="526" y="60" width="13" height="13" rx="2" fill="#161b22"/>
<rect x="526" y="77" width="13" height="13" rx="2" fill="#161b22"/>
<rect x="526" y="94" width="13" height="13" rx="2" fill="#161b22"/>
<rect x="526" y="111" width="13" height="13" rx="2" fill="#161b22"/>
<rect x="526" y="128" width="13" height="13" rx="2" fill="#161b22"/>
<rect x="526" y="145" width="13" height="13" rx="2" fill="#161b22"/>
<rect x="526" y="162" width="13" height="13" rx="2" fill="#161b22"/>
<rect x="543" y="60" width="13" height="13" rx="2" fill="#161b22"/>
<rect x="543" y="77" width="13" height="13" rx="2" fill="#161b22"/>
<rect x="543" y="94" width="13" height="13" rx="2" fill="#161b22"/>
<rect x="543" y="111" width="13" height="13" rx="2" fill="#161b22"/>
<rect x="543" y="128" width="13" height="13" rx="2" fill="#161b22"/>
<rect x="543" y="145" width="13" height="13" rx="2" fill="#161b22"/>
<rect x="543" y="162" width="13" height="13" rx="2" fill="#161b22"/>
<rect x="560" y="60" width="13" height="13" rx="2" fill="#161b22"/>
<rect x="560" y="77" width="13" height="13" rx="2" fill="#161b22"/>
<rect x="560" y="94" width="13" height="13" rx="2" fill="#161b22"/>
<rect x="560" y="111" width="13" height="13" rx="2" fill="#161b22"/>
<rect x="560" y="128" width="13" height="13" rx="2" fill="#161b22"/>
<rect x="560" y="145" width="13" height="13" rx="2" fill="#161b22"/>
<rect x="560" y="162" width="13" height="13" rx="2" fill="#161b22"/>
<rect x="577" y="60" width="13" height="13" rx="2" fill="#161b22"/>
<rect x="577" y="77" width="13" height="13" rx="2" fill="#161b22"/>
<rect x="577" y="94" width="13" height="13" rx="2" fill="#161b22"/>
<rect x="577" y="111" width="13" height="13" rx="2" fill="#0e4429"/>
<rect x="577" y="128" width="13" height="13" rx="2" fill="#161b22"/>
<rect x="577" y="145" width="13" height="13" rx="2" fill="#161b22"/>
<rect x="577" y="162" width="13" height="13" rx="2" fill="#161b22"/>
<rect x="594" y="60" width="13" height="13" rx="2" fill="#161b22"/>
<rect x="594" y="77" width="13" height="13" rx="2" fill="#161b22"/>
<rect x="594" y="94" width="13" height="13" rx="2" fill="#161b22"/>
<rect x="594" y="111" width="13" height="13" rx="2" fill="#161b22"/>
<rect x="594" y="128" width="13" height="13" rx="2" fill="#161b22"/>
<rect x="594" y="145" width="13" height="13" rx="2" fill="#161b22"/>
<rect x="594" y="162" width="13" height="13" rx="2" fill="#161b22"/>
<rect x="611" y="60" width="13" height="13" rx="2" fill="#161b22"/>
<rect x="611" y="77" width="13" height="13" rx="2" fill="#161b22"/>
<rect x="611" y="94" width="13" height="13" rx="2" fill="#0e4429"/>
<rect x="611" y="111" width="13" height="13" rx="2" fill="#161b22"/>
<rect x="611" y="128" width="13" height="13" rx="2" fill="#161b22"/>
<rect x="611" y="145" width="13" height="13" rx="2" fill="#161b22"/>
<rect x="611" y="162" width="13" height="13" rx="2" fill="#161b22"/>
<rect x="628" y="60" width="13" height="13" rx="2" fill="#0e4429"/>
<rect x="628" y="77" width="13" height="13" rx="2" fill="#161b22"/>
<rect x="628" y="94" width="13" height="13" rx="2" fill="#161b22"/>
<rect x="628" y="111" width="13" height="13" rx="2" fill="#161b22"/>
<rect x="628" y="128" width="13" height="13" rx="2" fill="#161b22"/>
<rect x="628" y="145" width="13" height="13" rx="2" fill="#161b22"/>
<rect x="628" y="162" width="13" height="13" rx="2" fill="#161b22"/>
<rect x="645" y="60" width="13" height="13" rx="2" fill="#161b22"/>
<rect x="645" y="77" width="13" height="13" rx="2" fill="#161b22"/>
<rect x="645" y="94" width="13" height="13" rx="2" fill="#161b22"/>
<rect x="645" y="111" width="13" height="13" rx="2" fill="#161b22"/>
<rect x="645" y="128" width="13" height="13" rx="2" fill="#161b22"/>
<rect x="645" y="145" width="13" height="13" rx="2" fill="#161b22"/>
<rect x="645" y="162" width="13" height="13" rx="2" fill="#161b22"/>
<rect x="662" y="60" width="13" height="13" rx="2" fill="#161b22"/>
<rect x="662" y="77" width="13" height="13" rx="2" fill="#161b22"/>
<rect x="662" y="94" width="13" height="13" rx="2" fill="#161b22"/>
<rect x="662" y="111" width="13" height="13" rx="2" fill="#161b22"/>
<rect x="662" y="128" width="13" height="13" rx="2" fill="#161b22"/>
<rect x="662" y="145" width="13" height="13" rx="2" fill="#161b22"/>
<rect x="662" y="162" width="13" height="13" rx="2" fill="#161b22"/>
<rect x="679" y="60" width="13" height="13" rx="2" fill="#161b22"/>
<rect x="679" y="77" width="13" height="13" rx="2" fill="#161b22"/>
<rect x="679" y="94" width="13" height="13" rx="2" fill="#161b22"/>
<rect x="679" y="111" width="13" height="13" rx="2" fill="#161b22"/>
<rect x="679" y="128" width="13" height="13" rx="2" fill="#161b22"/>
<rect x="679" y="145" width="13" height="13" rx="2" fill="#161b22"/>
<rect x="679" y="162" width="13" height="13" rx="2" fill="#161b22"/>
<rect x="696" y="60" width="13" height="13" rx="2" fill="#161b22"/>
<rect x="696" y="77" width="13" height="13" rx="2" fill="#161b22"/>
<rect x="696" y="94" width="13" height="13" rx="2" fill="#161b22"/>
<rect x="696" y="111" width="13" height="13" rx="2" fill="#161b22"/>
<rect x="696" y="128" width="13" height="13" rx="2" fill="#161b22"/>
<rect x="696" y="145" width="13" height="13" rx="2" fill="#161b22"/>
<rect x="696" y="162" width="13" height="13" rx="2" fill="#161b22"/>
<rect x="713" y="60" width="13" height="13" rx="2" fill="#161b22"/>
<rect x="713" y="77" width="13" height="13" rx="2" fill="#161b22"/>
<rect x="713" y="94" width="13" height="13" rx="2" fill="#161b22"/>
<rect x="713" y="111" width="13" height="13" rx="2" fill="#161b22"/>
<rect x="713" y="128" width="13" height="13" rx="2" fill="#161b22"/>
<rect x="713" y="145" width="13" height="13" rx="2" fill="#161b22"/>
<rect x="713" y="162" width="13" height="13" rx="2" fill="#161b22"/>
<rect x="730" y="60" width="13" height="13" rx="2" fill="#161b22"/>
<rect x="730" y="77" width="13" height="13" rx="2" fill="#161b22"/>
<rect x="730" y="94" width="13" height="13" rx="2" fill="#161b22"/>
<rect x="730" y="111" width="13" height="13" rx="2" fill="#161b22"/>
<rect x="730" y="128" width="13" height="13" rx="2" fill="#161b22"/>
<rect x="730" y="145" width="13" height="13" rx="2" fill="#161b22"/>
<rect x="730" y="162" width="13" height="13" rx="2" fill="#161b22"/>
<rect x="747" y="60" width="13" height="13" rx="2" fill="#161b22"/>
<rect x="747" y="77" width="13" height="13" rx="2" fill="#161b22"/>
<rect x="747" y="94" width="13" height="13" rx="2" fill="#161b22"/>
<rect x="747" y="111" width="13" height="13" rx="2" fill="#161b22"/>
<rect x="747" y="128" width="13" height="13" rx="2" fill="#161b22"/>
<rect x="747" y="145" width="13" height="13" rx="2" fill="#161b22"/>
<rect x="747" y="162" width="13" height="13" rx="2" fill="#161b22"/>
<rect x="764" y="60" width="13" height="13" rx="2" fill="#161b22"/>
<rect x="764" y="77" width="13" height="13" rx="2" fill="#161b22"/>
<rect x="764" y="94" width="13" height="13" rx="2" fill="#161b22"/>
<rect x="764" y="111" width="13" height="13" rx="2" fill="#161b22"/>
<rect x="764" y="128" width="13" height="13" rx="2" fill="#161b22"/>
<rect x="764" y="145" width="13" height="13" rx="2" fill="#161b22"/>
<rect x="764" y="162" width="13" height="13" rx="2" fill="#161b22"/>
<rect x="781" y="60" width="13" height="13" rx="2" fill="#161b22"/>
<rect x="781" y="77" width="13" height="13" rx="2" fill="#0e4429"/>
<rect x="781" y="94" width="13" height="13" rx="2" fill="#0e4429"/>
<rect x="781" y="111" width="13" height="13" rx="2" fill="#161b22"/>
<rect x="781" y="128" width="13" height="13" rx="2" fill="#0e4429"/>
<rect x="781" y="145" width="13" height="13" rx="2" fill="#161b22"/>
<rect x="781" y="162" width="13" height="13" rx="2" fill="#161b22"/>
<rect x="798" y="60" width="13" height="13" rx="2" fill="#161b22"/>
<rect x="798" y="77" width="13" height="13" rx="2" fill="#161b22"/>
<rect x="798" y="94" width="13" height="13" rx="2" fill="#0e4429"/>
<rect x="798" y="111" width="13" height="13" rx="2" fill="#161b22"/>
<rect x="798" y="128" width="13" height="13" rx="2" fill="#161b22"/>
<rect x="798" y="145" width="13" height="13" rx="2" fill="#161b22"/>
<rect x="798" y="162" width="13" height="13" rx="2" fill="#161b22"/>
<rect x="815" y="60" width="13" height="13" rx="2" fill="#161b22"/>
<rect x="815" y="77" width="13" height="13" rx="2" fill="#161b22"/>
<rect x="815" y="94" width="13" height="13" rx="2" fill="#006d32"/>
<rect x="815" y="111" width="13" height="13" rx="2" fill="#161b22"/>
<rect x="815" y="128" width="13" height="13" rx="2" fill="#161b22"/>
<rect x="815" y="145" width="13" height="13" rx="2" fill="#161b22"/>
<rect x="815" y="162" width="13" height="13" rx="2" fill="#161b22"/>
<rect x="832" y="60" width="13" height="13" rx="2" fill="#161b22"/>
<rect x="832" y="77" width="13" height="13" rx="2" fill="#161b22"/>
<rect x="832" y="94" width="13" height="13" rx="2" fill="#161b22"/>
<rect x="832" y="111" width="13" height="13" rx="2" fill="#161b22"/>
<rect x="832" y="128" width="13" height="13" rx="2" fill="#161b22"/>
<rect x="832" y="145" width="13" height="13" rx="2" fill="#0e4429"/>
<rect x="832" y="162" width="13" height="13" rx="2" fill="#161b22"/>
<rect x="849" y="60" width="13" height="13" rx="2" fill="#161b22"/>
<rect x="849" y="77" width="13" height="13" rx="2" fill="#161b22"/>
<rect x="849" y="94" width="13" height="13" rx="2" fill="#161b22"/>
<rect x="849" y="111" width="13" height="13" rx="2" fill="#161b22"/>
<rect x="849" y="128" width="13" height="13" rx="2" fill="#0e4429"/>
<rect x="849" y="145" width="13" height="13" rx="2" fill="#006d32"/>
<rect x="849" y="162" width="13" height="13" rx="2" fill="#161b22"/>
<rect x="866" y="60" width="13" height="13" rx="2" fill="#161b22"/>
<rect x="866" y="77" width="13" height="13" rx="2" fill="#161b22"/>
<rect x="866" y="94" width="13" height="13" rx="2" fill="#39d353"/>
<rect x="866" y="111" width="13" height="13" rx="2" fill="#161b22"/>
<rect x="866" y="128" width="13" height="13" rx="2" fill="#161b22"/>
<rect x="866" y="145" width="13" height="13" rx="2" fill="#161b22"/>
<rect x="866" y="162" width="13" height="13" rx="2" fill="#161b22"/>
<rect x="883" y="60" width="13" height="13" rx="2" fill="#161b22"/>
<rect x="883" y="77" width="13" height="13" rx="2" fill="#161b22"/>
<rect x="883" y="94" width="13" height="13" rx="2" fill="#161b22"/>
<rect x="883" y="111" width="13" height="13" rx="2" fill="#161b22"/>
<rect x="883" y="128" width="13" height="13" rx="2" fill="#161b22"/>
<rect x="883" y="145" width="13" height="13" rx="2" fill="#161b22"/>
<rect x="883" y="162" width="13" height="13" rx="2" fill="#161b22"/>
<rect x="900" y="60" width="13" height="13" rx="2" fill="#161b22"/>
<rect x="900" y="77" width="13" height="13" rx="2" fill="#161b22"/>
<rect x="900" y="94" width="13" height="13" rx="2" fill="#161b22"/>
<rect x="900" y="111" width="13" height="13" rx="2" fill="#161b22"/>
<rect x="900" y="128" width="13" height="13" rx="2" fill="#161b22"/>
<rect x="900" y="145" width="13" height="13" rx="2" fill="#161b22"/>
<rect x="900" y="162" width="13" height="13" rx="2" fill="#161b22"/>
<rect x="917" y="60" width="13" height="13" rx="2" fill="#0e4429"/>
<rect x="917" y="77" width="13" height="13" rx="2" fill="#161b22"/>
<rect x="917" y="94" width="13" height="13" rx="2" fill="#161b22"/>
<rect x="917" y="111" width="13" height="13" rx="2" fill="#161b22"/>
<rect x="917" y="128" width="13" height="13" rx="2" fill="#161b22"/>
<rect x="917" y="145" width="13" height="13" rx="2" fill="#161b22"/>
<rect x="917" y="162" width="13" height="13" rx="2" fill="#0e4429"/>
<rect x="934" y="60" width="13" height="13" rx="2" fill="#0e4429"/>
<rect x="934" y="77" width="13" height="13" rx="2" fill="#0d1117"/>
<rect x="934" y="94" width="13" height="13" rx="2" fill="#0d1117"/>
<rect x="934" y="111" width="13" height="13" rx="2" fill="#0d1117"/>
<rect x="934" y="128" width="13" height="13" rx="2" fill="#0d1117"/>
<rect x="934" y="145" width="13" height="13" rx="2" fill="#0d1117"/>
<rect x="934" y="162" width="13" height="13" rx="2" fill="#0d1117"/>
<text x="731" y="199" font-family="SF Mono, Consolas, monospace" font-size="12" fill="#8b949e">Less</text>
<rect x="771" y="188" width="13" height="13" rx="2" fill="#161b22"/>
<rect x="789" y="188" width="13" height="13" rx="2" fill="#0e4429"/>
<rect x="807" y="188" width="13" height="13" rx="2" fill="#006d32"/>
<rect x="825" y="188" width="13" height="13" rx="2" fill="#26a641"/>
<rect x="843" y="188" width="13" height="13" rx="2" fill="#39d353"/>
<text x="869" y="199" font-family="SF Mono, Consolas, monospace" font-size="12" fill="#8b949e">More</text>
<line x1="0" y1="219" x2="991" y2="219" stroke="#21262d" stroke-width="1"/>
<text x="40" y="254" font-family="SF Mono, Consolas, monospace" font-size="16" fill="#3fb950" font-weight="800">135</text>
<text x="70" y="254" font-family="SF Mono, Consolas, monospace" font-size="16" fill="#c9d1d9">contributions in the last year</text>
</svg>